			<svg
					width="24"
					height="24"
					viewBox="0 0 17 18"
					fill="white"
					xmlns="http://www.w3.org/2000/svg"
				>
					<g opacity="0.1">
						<path
							d="M15.0335 9.05162L16.1902 11.3594M1 5.40158L1.66088 5.01271C1.66088 2.79669 3.45721 1 5.67358 1C6.71483 1 7.664 1.39667 8.37729 2.04762C8.67747 1.7459 9.03439 1.50657 9.42748 1.34342C9.82058 1.18027 10.2421 1.09654 10.6677 1.09704C12.2044 1.09704 13.8839 2.07985 14.214 3.51635C15.252 4.53352 15.5998 5.33571 15.7121 6.00862"
							stroke="white"
							stroke-width="0.7"
							stroke-linecap="round"
							stroke-linejoin="round"
						/>
						<path
							d="M15.1646 12.9088C16.1917 12.5889 16.5267 11.9978 16.1917 11.3564C16.1917 11.3564 14.9138 12.2812 11.2156 12.0641C9.56767 11.9674 5.60136 11.2222 4.25305 11.8675C3.24544 12.3499 3.04888 13.5314 4.48148 13.9358C5.59994 14.2518 5.25711 13.6621 10.5307 14.2518C12.1017 14.3881 13.8003 14.4005 15.0275 13.9358C15.4925 13.7602 15.8952 13.1599 15.1646 12.9088Z"
							stroke="white"
							stroke-width="0.7"
							stroke-linecap="round"
							stroke-linejoin="round"
						/>
						<path
							d="M15.166 12.8977C10.5548 13.9478 9.02374 12.5206 5.05176 12.863"
							stroke="white"
							stroke-width="0.7"
							stroke-linecap="round"
							stroke-linejoin="round"
						/>
						<path
							d="M3.74414 7.77334C4.31754 8.4374 6.1801 9.31113 7.69664 9.31113C9.54929 9.31113 10.321 8.45369 10.321 7.3958C10.321 7.02782 10.2275 6.68392 10.0278 6.39209"
							stroke="white"
							stroke-width="0.7"
							stroke-linecap="round"
							stroke-linejoin="round"
						/>
						<path
							d="M10.0397 6.41049C10.0397 5.76414 8.64073 5.00516 7.42523 5.12487C5.80457 5.2846 5.46209 5.90085 3.95546 6.56279C2.44884 7.22508 2.26609 6.67718 2.12938 7.1337C1.99232 7.59058 2.565 7.90401 3.68169 7.77297C5.80457 7.77297 6.80863 6.41049 10.0397 6.41049Z"
							stroke="white"
							stroke-width="0.7"
							stroke-linecap="round"
							stroke-linejoin="round"
						/>
						<path
							d="M1.01953 14.2822C3.74024 15.6812 7.00495 16.3325 10.4248 15.7591C11.6906 15.547 12.7605 14.9874 13.5478 14.2822"
							stroke="white"
							stroke-width="0.7"
							stroke-linecap="round"
							stroke-linejoin="round"
						/>
						<path
							d="M11.5693 15.46C12.4643 15.654 13.4595 16.5101 13.6348 17.2917"
							stroke="white"
							stroke-width="0.7"
							stroke-linecap="round"
							stroke-linejoin="round"
						/>
						<path
							d="M4.26367 4.35281C5.68211 3.26446 7.93603 3.34131 9.58609 4.17715C10.072 3.50919 12.2519 3.1281 14.5434 3.96358"
							stroke="white"
							stroke-width="0.7"
							stroke-linecap="round"
							stroke-linejoin="round"
						/>
						<path
							d="M8.15625 1.86035C8.59648 2.28748 9.4061 3.1821 9.21946 4.02148C9.91929 4.35829 10.6099 5.26389 10.2409 6.79921"
							stroke="white"
							stroke-width="0.7"
							stroke-linecap="round"
							stroke-linejoin="round"
						/>
						<path
							d="M10.1422 6.58701C10.2637 6.8328 10.3214 7.10693 10.3214 7.39593C10.3214 7.69697 10.2591 7.98136 10.127 8.23459C10.9383 8.78355 12.321 9.31126 13.5177 9.31126C15.3707 9.31126 16.1421 8.45382 16.1421 7.39593C16.1421 7.02759 16.0635 6.69822 15.8637 6.40674"
							stroke="white"
							stroke-width="0.7"
							stroke-linecap="round"
							stroke-linejoin="round"
						/>
						<path
							d="M13.2581 5.12487C14.4736 5.00516 15.8729 5.76414 15.8729 6.41049C14.0883 6.41049 12.9829 6.82629 11.9934 7.19816C11.4253 7.41172 10.8955 7.61112 10.2969 7.70922C10.3132 7.60566 10.3213 7.50097 10.321 7.39614C10.321 7.04764 10.2371 6.72074 10.0586 6.43918C10.4461 6.25395 10.7528 6.07474 11.0336 5.91041C11.6839 5.52968 12.1971 5.22935 13.2581 5.12487Z"
							stroke="white"
							stroke-width="0.7"
							stroke-linecap="round"
							stroke-linejoin="round"
						/>
					</g>
				</svg>
